<?xml version="1.0" encoding="UTF-8" standalone="no"?>
<!-- Created with Inkscape (http://www.inkscape.org/) -->

<svg
   xmlns:dc="http://purl.org/dc/elements/1.1/"
   xmlns:cc="http://creativecommons.org/ns#"
   xmlns:rdf="http://www.w3.org/1999/02/22-rdf-syntax-ns#"
   xmlns:svg="http://www.w3.org/2000/svg"
   xmlns="http://www.w3.org/2000/svg"
   xmlns:sodipodi="http://sodipodi.sourceforge.net/DTD/sodipodi-0.dtd"
   xmlns:inkscape="http://www.inkscape.org/namespaces/inkscape"
   version="1.1"
   id="svg2"
   xml:space="preserve"
   width="1333.3333"
   height="1333.3333"
   viewBox="0 0 1333.3333 1333.3333"
   sodipodi:docname="circleswirl.svg"
   inkscape:version="0.92.5 (2060ec1f9f, 2020-04-08)"><metadata
     id="metadata8"><rdf:RDF><cc:Work
         rdf:about=""><dc:format>image/svg+xml</dc:format><dc:type
           rdf:resource="http://purl.org/dc/dcmitype/StillImage" /><dc:title></dc:title></cc:Work></rdf:RDF></metadata><defs
     id="defs6" /><sodipodi:namedview
     pagecolor="#ffffff"
     bordercolor="#666666"
     borderopacity="1"
     objecttolerance="10"
     gridtolerance="10"
     guidetolerance="10"
     inkscape:pageopacity="0"
     inkscape:pageshadow="2"
     inkscape:window-width="1920"
     inkscape:window-height="1009"
     id="namedview4"
     showgrid="false"
     inkscape:zoom="0.50063163"
     inkscape:cx="754.83526"
     inkscape:cy="800.11941"
     inkscape:window-x="768"
     inkscape:window-y="0"
     inkscape:window-maximized="1"
     inkscape:current-layer="g10" /><g
     id="g10"
     inkscape:groupmode="layer"
     inkscape:label="ink_ext_XXXXXX"
     transform="matrix(1.3333333,0,0,-1.3333333,0,1333.3333)"><g
       id="g12"
       transform="scale(0.1)"><path
         d="M 0,0 V 10000 H 10000 V 0 H 0"
         style="fill:#ffffff;fill-opacity:1;fill-rule:nonzero;stroke:none"
         id="path14"
         inkscape:connector-curvature="0" /><path
         d="m 4656.7,6569.64 c -511.25,0 -980.25,-180.87 -1265.4,-534.63 -216.83,-269.01 -301.01,-599.67 -243.42,-956.2 77.89,-482.25 405.8,-941.22 899.65,-1259.24 887.13,-571.28 2036.06,-506.02 2561.17,145.41 216.83,269.02 301.02,599.68 243.42,956.23 -77.89,482.24 -405.8,941.21 -899.65,1259.22 -405.39,261.05 -865.55,389.21 -1295.77,389.21 z m 686.37,-3153.4 c -432.97,0 -895.61,128.78 -1303.28,391.3 -497.26,320.21 -827.49,782.73 -906.03,1268.98 -58.26,360.67 26.96,695.21 246.41,967.46 529.53,656.98 1686.95,723.59 2580.04,148.47 497.26,-320.2 827.49,-782.72 906.04,-1268.96 58.25,-360.67 -26.96,-695.22 -246.42,-967.47 -287.82,-357.07 -761.23,-539.78 -1276.76,-539.78"
         style="fill:#000000;fill-opacity:1;fill-rule:nonzero;stroke:none"
         id="path16"
         inkscape:connector-curvature="0" /><path
         d="m 3217.04,5774.33 6.71,-3.27 c -166.1,-341.42 -180.78,-737.17 -41.33,-1114.35 177.14,-479.12 581.06,-885.21 1108.17,-1114.14 979.5,-425.4 2094.57,-117.5 2485.65,686.36 166.12,341.42 180.8,737.18 41.35,1114.35 -177.14,479.13 -581.06,885.22 -1108.18,1114.15 -979.49,425.38 -2094.58,117.49 -2485.66,-686.37 z M 5200.42,3336.4 c -301.64,0 -615.07,61.9 -915.77,192.5 -530.83,230.53 -937.67,639.72 -1116.22,1122.64 -140.88,381.03 -125.99,780.93 41.91,1126.05 394.54,810.94 1518.3,1122.04 2505.01,693.51 530.83,-230.53 937.68,-639.72 1116.23,-1122.64 140.88,-381.03 125.98,-780.93 -41.92,-1126.06 -274.31,-563.81 -901.08,-886 -1589.24,-886"
         style="fill:#000000;fill-opacity:1;fill-rule:nonzero;stroke:none"
         id="path18"
         inkscape:connector-curvature="0" /><path
         d="m 4916.68,6762.38 c -854.66,0 -1613.8,-520.69 -1807.07,-1307.82 -103.59,-421.89 -30.37,-868.15 206.18,-1256.58 270.27,-443.79 731.76,-772.01 1266.13,-900.52 1042.29,-250.64 2077.96,309.16 2308.47,1247.98 103.6,421.88 30.38,868.14 -206.17,1256.57 -270.27,443.79 -731.76,772.02 -1266.13,900.53 -168.4,40.5 -336.72,59.84 -501.41,59.84 z m 166.6,-3540.31 c -165.94,-0.01 -335.31,19.47 -505,60.27 -538.36,129.47 -1003.35,460.26 -1275.76,907.55 -238.72,391.99 -312.59,842.43 -208,1268.37 l 7.54,-1.84 -7.54,1.84 c 232.54,947.1 1276.55,1512.08 2327.21,1259.4 538.36,-129.47 1003.35,-460.26 1275.76,-907.56 238.72,-391.98 312.58,-842.43 207.99,-1268.37 -194.99,-794.14 -960.62,-1319.6 -1822.2,-1319.66"
         style="fill:#000000;fill-opacity:1;fill-rule:nonzero;stroke:none"
         id="path20"
         inkscape:connector-curvature="0" /><path
         d="m 4988.11,6905.98 c -490.4,0 -954.28,-178.15 -1315.33,-507.19 C 3298.82,6058 3080.47,5594.25 3057.94,5092.99 3010.78,4043.3 3843.63,3147.62 4914.5,3096.36 c 526.04,-25.1 1027.84,154.1 1412.72,504.84 373.97,340.8 592.32,804.55 614.85,1305.81 47.16,1049.69 -785.7,1945.37 -1856.57,1996.63 -32.56,1.57 -65.03,2.34 -97.39,2.34 z m 23.81,-3828.17 c -32.65,0 -65.33,0.78 -98.19,2.36 -1079.78,51.69 -1919.54,954.96 -1871.98,2013.55 22.71,505.59 242.94,973.33 620.11,1317.05 388.08,353.67 894.02,534.42 1424.41,509.06 1079.78,-51.69 1919.55,-954.96 1871.99,-2013.55 -22.71,-505.59 -242.94,-973.33 -620.12,-1317.05 -364.03,-331.76 -831.81,-511.42 -1326.22,-511.42"
         style="fill:#000000;fill-opacity:1;fill-rule:nonzero;stroke:none"
         id="path22"
         inkscape:connector-curvature="0" /><path
         d="m 5008.05,7071.87 c -95.41,0 -191.34,-7.49 -287.2,-22.6 C 3659.97,6881.87 2922.2,5826.34 3076.23,4696.28 c 77.8,-570.72 364.91,-1066.69 808.48,-1396.54 407.06,-302.72 902.27,-426.65 1394.45,-349.01 1060.88,167.39 1798.65,1222.93 1644.62,2352.99 -77.8,570.72 -364.94,1066.7 -808.5,1396.55 -327.79,243.74 -712.75,371.6 -1107.23,371.6 z m -16.14,-4160.64 c -398.09,0 -786.54,128.99 -1117.28,374.95 -447.24,332.58 -736.73,832.55 -815.14,1407.82 -155.27,1139.1 588.84,2203.15 1658.73,2371.96 496.62,78.37 996.39,-46.69 1407.14,-352.13 C 6572.61,6381.24 6862.1,5881.27 6940.52,5306 7095.79,4166.9 6351.68,3102.85 5281.79,2934.04 c -96.73,-15.26 -193.59,-22.81 -289.88,-22.81"
         style="fill:#000000;fill-opacity:1;fill-rule:nonzero;stroke:none"
         id="path24"
         inkscape:connector-curvature="0" /><path
         d="m 4959.23,7248.58 c -211.15,0 -421.88,-39.71 -623.92,-119.5 C 3325.77,6730.41 2802.98,5450.8 3169.93,4276.61 c 190.79,-610.46 598.51,-1103.16 1118.63,-1351.79 441.3,-210.93 930,-230.08 1376.13,-53.9 1009.54,398.66 1532.33,1678.27 1165.39,2852.46 -190.78,610.46 -598.51,1103.16 -1118.63,1351.8 -241.44,115.4 -497.13,173.4 -752.22,173.4 z m 81.52,-4514.8 c -257.69,0 -515.91,58.57 -759.79,175.15 -524.52,250.73 -935.61,747.31 -1127.83,1362.44 -369.65,1182.8 157.77,2472.12 1175.7,2874.1 450.73,178 944.45,158.68 1390.22,-54.41 524.52,-250.73 935.61,-747.31 1127.83,-1362.43 369.64,-1182.81 -157.79,-2472.13 -1175.72,-2874.1 -204.13,-80.6 -417.09,-120.75 -630.41,-120.75"
         style="fill:#000000;fill-opacity:1;fill-rule:nonzero;stroke:none"
         id="path26"
         inkscape:connector-curvature="0" /><path
         d="m 3342.05,3848.13 c 311.85,-628.08 820.2,-1073.04 1394.68,-1220.78 460.2,-118.34 929.48,-33.7 1321.51,238.28 915.13,634.91 1184.15,2109.1 599.71,3286.23 -311.86,628.09 -820.2,1073.05 -1394.68,1220.78 -460.14,118.35 -929.47,33.71 -1321.5,-238.27 C 3026.64,6499.47 2757.61,5025.28 3342.05,3848.13 Z M 5144.03,2556.84 c -136.62,0 -274.61,17.43 -411.86,52.73 -579.67,149.06 -1092.34,597.53 -1406.56,1230.4 -588.35,1184.98 -316.63,2669.61 605.7,3309.48 396.49,275.08 871.14,360.66 1336.53,240.98 579.66,-149.06 1092.33,-597.53 1406.55,-1230.41 588.34,-1184.96 316.64,-2669.59 -605.69,-3309.48 -279.55,-193.95 -598.03,-293.7 -924.67,-293.7"
         style="fill:#000000;fill-opacity:1;fill-rule:nonzero;stroke:none"
         id="path28"
         inkscape:connector-curvature="0" /><path
         d="m 4705.3,7589.85 c -436,0 -841.76,-186.57 -1150.8,-531.41 -777.42,-867.51 -760.22,-2496.76 38.35,-3631.87 428.58,-609.21 1015.82,-978.71 1611.16,-1013.76 470.13,-27.63 911.11,160.1 1241.49,528.75 777.42,867.5 760.23,2496.75 -38.34,3631.87 -428.57,609.21 -1015.81,978.7 -1611.15,1013.76 -30.37,1.78 -60.62,2.66 -90.71,2.66 z m 589.48,-5198.86 c -30.5,0 -61.12,0.89 -91.9,2.71 -601.19,35.39 -1193.74,407.84 -1625.7,1021.85 -803.39,1141.98 -819.96,2781.91 -36.93,3655.66 334.34,373.09 780.65,563.15 1256.89,535.09 601.18,-35.4 1193.73,-407.85 1625.69,-1021.86 803.39,-1141.98 819.96,-2781.91 36.92,-3655.66 -312.73,-348.98 -723.5,-537.79 -1164.97,-537.79"
         style="fill:#000000;fill-opacity:1;fill-rule:nonzero;stroke:none"
         id="path30"
         inkscape:connector-curvature="0" /><path
         d="m 4522.97,7734.17 c -65.86,0 -131.24,-4.2 -195.99,-12.69 C 3851.06,7659.1 3446.86,7366.32 3188.83,6897.05 2591,5809.82 2918.77,4074.5 3919.5,3028.72 c 529.56,-553.41 1168.71,-826.83 1753.52,-750.2 475.92,62.37 880.13,355.16 1138.16,824.43 597.82,1087.23 270.05,2822.55 -730.67,3868.32 -470.94,492.15 -1028.56,762.9 -1557.54,762.9 z m 954.09,-5488.3 c -534.49,-0.02 -1097.2,272.88 -1571.99,769.05 -1006.31,1051.61 -1335.45,2797.44 -733.73,3891.75 261.17,474.98 670.65,771.38 1153.05,834.61 591.2,77.51 1236.54,-198.15 1770.55,-756.2 C 7101.23,5933.47 7430.38,4187.64 6828.67,3093.32 6567.5,2618.35 6158,2321.94 5675.61,2258.72 c -65.57,-8.59 -131.87,-12.84 -198.55,-12.85"
         style="fill:#000000;fill-opacity:1;fill-rule:nonzero;stroke:none"
         id="path32"
         inkscape:connector-curvature="0" /><path
         d="m 4321.71,7850.53 c -157.97,0 -311.13,-23.21 -456.41,-70.4 C 3387.04,7624.75 3030.23,7222.99 2860.6,6648.86 2481.1,5364.4 3134.02,3580.38 4316.07,2671.97 c 606.19,-465.88 1269.06,-630.66 1818.64,-452.1 478.26,155.38 835.06,557.14 1004.69,1131.26 379.51,1284.47 -273.41,3068.49 -1455.46,3976.9 -445.95,342.71 -922.61,522.5 -1362.23,522.5 z M 5678.36,2128.66 c -444.27,0 -925.29,181.22 -1374.98,526.81 -1188.29,913.2 -1844.46,2707.28 -1462.74,3999.29 171.64,580.9 533.25,987.59 1018.23,1145.16 556.22,180.69 1226.04,14.72 1837.76,-455.39 1188.29,-913.21 1844.46,-2707.28 1462.72,-3999.29 -171.62,-580.9 -533.23,-987.59 -1018.21,-1145.16 -147.33,-47.87 -302.7,-71.42 -462.78,-71.42"
         style="fill:#000000;fill-opacity:1;fill-rule:nonzero;stroke:none"
         id="path34"
         inkscape:connector-curvature="0" /><path
         d="m 4125.62,7937.71 c -255.98,0 -495.84,-57.3 -710.64,-172.64 C 2940,7509.98 2645.5,6995.26 2585.73,6315.72 2458.26,4866.17 3439.62,3097.73 4773.37,2373.59 c 663.75,-360.38 1307.14,-409.61 1811.65,-138.66 474.99,255.08 769.48,769.81 829.25,1449.34 127.47,1449.56 -853.89,3218 -2187.63,3942.14 -381.17,206.95 -755.72,311.3 -1101.02,311.3 z m 1748.8,-5897.16 c -348.94,-0.01 -726.92,105.22 -1111.41,313.97 -1340.63,727.89 -2327.05,2505.73 -2198.88,3963.1 60.41,687.07 358.94,1207.91 840.59,1466.56 511.2,274.52 1161.9,225.26 1832.28,-138.7 1340.63,-727.89 2327.04,-2505.73 2198.87,-3963.11 -60.42,-687.07 -358.94,-1207.91 -840.59,-1466.56 -218,-117.07 -461.41,-175.26 -720.86,-175.26"
         style="fill:#000000;fill-opacity:1;fill-rule:nonzero;stroke:none"
         id="path36"
         inkscape:connector-curvature="0" /><path
         d="m 3943.63,7989.19 c -369.75,0 -699.59,-105.93 -964.8,-315.31 -461.36,-364.24 -674.19,-993.16 -599.31,-1770.89 151.47,-1573.33 1452.21,-3256.87 2899.55,-3752.88 683.13,-234.11 1301.82,-171.6 1742.11,176 461.34,364.24 674.19,993.16 599.31,1770.89 -151.48,1573.34 -1452.21,3256.88 -2899.56,3752.89 -271.64,93.1 -533.2,139.3 -777.3,139.3 z M 6056.49,1988.15 c -246.67,-0.01 -510.58,46.6 -784.75,140.56 -1454.95,498.61 -2762.5,2190.77 -2914.75,3772.11 -75.64,785.65 140.23,1421.65 607.83,1790.82 446.52,352.54 1072.77,416.35 1763.44,179.65 1454.94,-498.61 2762.5,-2190.78 2914.76,-3772.12 75.63,-785.65 -140.23,-1421.64 -607.83,-1790.81 -269.27,-212.59 -604,-320.19 -978.7,-320.21"
         style="fill:#000000;fill-opacity:1;fill-rule:nonzero;stroke:none"
         id="path38"
         inkscape:connector-curvature="0" /><path
         d="m 3810.71,8012.26 c -514.99,0 -950.33,-176.46 -1249.5,-512.52 C 2136.84,7023.04 2025.56,6264.86 2255.9,5419.6 2704.81,3772.19 4302.75,2245.59 5817.94,2016.56 c 676.54,-102.23 1252.15,69.53 1620.86,483.7 424.37,476.7 535.65,1234.88 305.3,2080.14 -448.93,1647.41 -2046.84,3174 -3562.03,3403.04 -127.6,19.27 -251.66,28.82 -371.36,28.82 z M 6189.46,1964.14 c -120.96,0 -246.16,9.63 -375.04,29.1 -1523.58,230.3 -3130.13,1764.57 -3581.28,3420.16 -232.47,853.09 -119.32,1619.26 310.45,2102.02 374.2,420.33 957.37,594.81 1642,491.34 C 5709.16,7776.46 7315.71,6242.19 7766.86,4586.6 7999.33,3733.51 7886.18,2967.35 7456.42,2484.58 7152.67,2143.37 6711.15,1964.14 6189.46,1964.14"
         style="fill:#000000;fill-opacity:1;fill-rule:nonzero;stroke:none"
         id="path40"
         inkscape:connector-curvature="0" /><path
         d="m 6372.12,1985.83 0.55,-12.28 -0.55,12.28 c 649.14,29.64 1166.86,307.47 1457.79,782.32 369.14,602.5 348.44,1460.44 -56.78,2353.86 C 7018.14,6786.62 5158.96,8084.02 3627.89,8014.17 2978.75,7984.53 2461.03,7706.7 2170.08,7231.85 1800.96,6629.36 1821.64,5771.41 2226.87,4877.99 2981.87,3213.37 4841.43,1915.87 6372.12,1985.83 Z m -118.79,-27.28 c -1515.8,0 -3309.66,1279.51 -4048.86,2909.28 -408.64,900.97 -428.81,1767.3 -55.35,2376.86 295.33,482.03 820.1,764.03 1477.66,794.04 1539.56,70.3 3409.96,-1233.6 4168.75,-2906.56 408.64,-900.96 428.82,-1767.3 55.36,-2376.86 -295.33,-482.03 -820.1,-764.03 -1477.66,-794.04 -39.75,-1.82 -79.74,-2.72 -119.9,-2.72"
         style="fill:#000000;fill-opacity:1;fill-rule:nonzero;stroke:none"
         id="path42"
         inkscape:connector-curvature="0" /><path
         d="m 3767.13,8017.22 c -238.84,0 -470.07,-27.56 -688.8,-85.13 -615.34,-161.98 -1050.76,-534 -1259.17,-1075.84 -280.72,-729.79 -104.8,-1663.72 482.64,-2562.31 1058.62,-1619.33 3131.04,-2617.91 4619.87,-2226.03 615.34,161.98 1050.76,533.99 1259.18,1075.84 280.72,729.79 104.8,1663.72 -482.65,2562.31 C 6795.11,7087.5 5154.09,8017.22 3767.13,8017.22 Z M 6233.97,1957.31 c -1395.73,0 -3045.9,934.09 -3953.62,2322.59 -592.02,905.58 -768.83,1847.97 -485.12,2585.56 211.49,549.84 652.94,927.25 1276.59,1091.41 1498.62,394.55 3583.63,-608.92 4647.83,-2236.77 592.02,-905.58 768.84,-1847.98 485.13,-2585.56 -211.5,-549.84 -652.94,-927.26 -1276.59,-1091.42 -220.35,-58 -453.63,-85.81 -694.22,-85.81"
         style="fill:#000000;fill-opacity:1;fill-rule:nonzero;stroke:none"
         id="path44"
         inkscape:connector-curvature="0" /><path
         d="m 3883.31,8031.41 c -483.73,0 -939.06,-96.6 -1328.5,-300.76 -560.78,-293.97 -915.04,-768.63 -1024.5,-1372.66 -153.36,-846.28 195.3,-1820.1 956.57,-2671.76 969.19,-1084.29 2391.76,-1717.56 3629.81,-1717.64 483.72,-0.03 939.06,96.6 1328.49,300.76 560.79,293.97 915.06,768.63 1024.51,1372.65 153.37,846.28 -195.29,1820.1 -956.56,2671.77 C 6543.94,7398.06 5121.36,8031.41 3883.31,8031.41 Z M 6117.59,1942.27 c -1246.02,0 -2676.45,636.26 -3650.65,1726.15 -766.78,857.84 -1117.77,1839.89 -962.93,2694.33 110.98,612.44 470.06,1093.64 1038.39,1391.58 1396.3,731.99 3635.12,93.75 4990.67,-1422.75 C 8299.85,5473.73 8650.84,4491.67 8495.99,3637.24 8385.02,3024.8 8025.93,2543.61 7457.6,2245.67 l -6.21,11.84 6.21,-11.84 c -392.8,-205.91 -852.29,-303.4 -1340.01,-303.4"
         style="fill:#000000;fill-opacity:1;fill-rule:nonzero;stroke:none"
         id="path46"
         inkscape:connector-curvature="0" /><path
         d="m 4099.05,8081.5 c -778.45,0 -1497.7,-220.37 -2019.55,-674.23 -495.35,-430.82 -752.61,-1012.1 -743.95,-1681 12.08,-934.2 540.21,-1900.12 1448.96,-2650.1 1610.38,-1329.02 3914.38,-1545.89 5136,-483.44 l 9.14,-10.51 -9.14,10.51 c 495.35,430.82 752.6,1012.09 743.95,1680.99 -12.08,934.2 -540.22,1900.12 -1448.97,2650.11 C 6293.03,7685.11 5142.87,8081.5 4099.05,8081.5 Z M 5901.01,1891.08 c -1050.45,0 -2206.92,398.3 -3134.23,1163.61 -915.08,755.19 -1446.91,1728.82 -1459.09,2671.23 -8.77,677.33 251.8,1266.01 753.53,1702.37 1231.43,1071 3551.57,854.35 5172.01,-482.98 915.08,-755.2 1446.91,-1728.83 1459.09,-2671.24 8.76,-677.33 -251.8,-1266 -753.53,-1702.36 C 7412.07,2113.6 6686.16,1891.08 5901.01,1891.08"
         style="fill:#000000;fill-opacity:1;fill-rule:nonzero;stroke:none"
         id="path48"
         inkscape:connector-curvature="0" /><path
         d="m 4380.14,8188.62 c -1110.48,0 -2127.64,-420.62 -2705.49,-1224.98 -414.9,-577.5 -553,-1269.32 -399.38,-2000.67 204.62,-974.19 903.63,-1876.64 1917.77,-2475.96 770.06,-455.08 1622.95,-675.59 2426.83,-675.63 1110.48,-0.06 2127.64,420.62 2705.48,1224.98 414.9,577.5 553,1269.31 399.38,2000.66 -204.62,974.19 -903.62,1876.65 -1917.77,2475.97 -770.05,455.08 -1622.94,675.63 -2426.82,675.63 z m 1239.18,-6406 c -808.99,0 -1666.62,221.71 -2441.07,679.38 -1021.14,603.46 -1725.12,1512.84 -1931.41,2494.99 -153.12,728.99 -9.58,1447.65 404.21,2023.62 1004.71,1398.5 3324.25,1648.57 5170.7,557.39 1021.14,-603.46 1725.12,-1512.85 1931.42,-2495.01 153.11,-728.97 9.57,-1447.63 -404.22,-2023.6 l -11.8,8.48 11.8,-8.48 C 7765.65,2207.47 6739.11,1782.62 5619.32,1782.62"
         style="fill:#000000;fill-opacity:1;fill-rule:nonzero;stroke:none"
         id="path50"
         inkscape:connector-curvature="0" /><path
         d="M 4660.2,8364.81 C 3203.86,8364.81 1882.82,7637.78 1361.81,6406.2 1055.02,5681 1065.17,4858.95 1390.38,4091.5 1793.91,3139.26 2638.03,2356.21 3706.33,1943.15 5712.6,1167.43 7925.01,1907.92 8638.2,3593.8 8944.98,4319 8934.83,5141.05 8609.62,5908.5 8206.09,6860.74 7361.96,7643.79 6293.67,8056.85 5753.04,8265.87 5197.4,8364.81 4660.2,8364.81 Z m 679.22,-6759.83 c -540.77,0 -1099.93,99.56 -1644.02,309.92 C 2619.52,2330.9 1769.2,3119.93 1362.48,4079.69 1034.05,4854.75 1023.91,5685.18 1333.92,6418 2053.41,8118.79 4283.19,8866.67 6304.6,8085.09 7380.48,7669.1 8230.8,6880.07 8637.51,5920.31 8965.96,5145.25 8976.1,4314.82 8666.09,3581.99 8140.26,2338.99 6807.71,1604.98 5339.42,1604.98"
         style="fill:#000000;fill-opacity:1;fill-rule:nonzero;stroke:none"
         id="path52"
         inkscape:connector-curvature="0" /><path
         d="m 4876.65,8609.03 c -1802.43,0 -3385.9,-1166.5 -3715.63,-2862.81 -183.262,-942.82 43.59,-1906.86 638.76,-2714.55 595.47,-808.1 1488.27,-1362.92 2513.93,-1562.3 272.36,-52.93 543.5,-78.38 809.64,-78.4 1802.44,-0.09 3385.91,1166.5 3715.64,2862.81 378.42,1946.79 -1035.88,3865.37 -3152.7,4276.84 -272.36,52.94 -543.49,78.41 -809.64,78.41 z m 246.68,-7249.64 c -268.31,0 -541.08,25.62 -815.64,78.99 -1033.47,200.88 -1933.15,760.07 -2533.33,1574.56 -600.48,814.88 -829.301,1787.71 -644.33,2739.31 381.74,1963.88 2428.34,3224.17 4562.28,2809.37 2133.92,-414.79 3559.41,-2349.98 3177.67,-4313.87 l -15.49,3.01 15.49,-3.01 C 8537.36,2536.54 6940.36,1359.39 5123.33,1359.39"
         style="fill:#000000;fill-opacity:1;fill-rule:nonzero;stroke:none"
         id="path54"
         inkscape:connector-curvature="0" /><path
         d="m 5000.01,8910.17 c -2156.08,0 -3910.17,-1754.1 -3910.17,-3910.17 0,-2156.07 1754.09,-3910.17 3910.17,-3910.17 2156.07,0 3910.15,1754.1 3910.15,3910.17 0,2156.07 -1754.08,3910.17 -3910.15,3910.17 z m 0,-7853.26 c -2174.23,0 -3943.1,1768.86 -3943.1,3943.09 0,2174.23 1768.87,3943.09 3943.1,3943.09 2174.22,0 3943.07,-1768.86 3943.07,-3943.09 0,-2174.23 -1768.85,-3943.09 -3943.07,-3943.09"
         style="fill:#000000;fill-opacity:1;fill-rule:nonzero;stroke:none"
         id="path56"
         inkscape:connector-curvature="0" /></g></g></svg>